<?xml version="1.0" encoding="UTF-8"?>
<svg width="16px" height="16px" viewBox="0 0 16 16" version="1.1" xmlns="http://www.w3.org/2000/svg" xmlns:xlink="http://www.w3.org/1999/xlink">
    <title>自动化助手-16px</title>
    <g id="页面-1" stroke="none" stroke-width="1" fill="none" fill-rule="evenodd">
        <g id="自动化助手-16px">
            <rect id="矩形" x="0" y="8.8817842e-16" width="16" height="16"></rect>
            <path d="M10.2433238,8.8817842e-16 L14.3464121,2.36891917 L14.3464121,7.21665464 L12.4303063,8.13323638 L12.4303795,13.4192632 L7.34201519,15.9000088 L7.28375375,16 L4.01027711,14.0807544 L4.00986911,10.3206971 L1.65358787,8.95988784 L1.65358787,4.11215235 L10.2433238,8.8817842e-16 Z M7.24628161,10.6151036 L6.06865569,11.1792111 L6.06858389,12.9011151 L7.24628161,13.5910796 L7.24628161,10.6151036 Z M9.3049964,12.6520019 L10.3714478,12.1321583 L10.3704903,6.78884875 L12.2872206,5.85415964 L12.2872206,4.57050621 L5.92339196,7.77618665 L5.92248184,8.96807434 L7.24628161,8.33293868 L7.24683473,8.31143391 L9.3040388,7.30869236 L9.3049964,12.6520019 Z M10.1504357,2.32295704 L4.00986911,5.26946425 L5.10296551,5.88416178 L11.0931244,2.86686031 L10.1504357,2.32295704 Z" id="形状结合" fill="#006eff" fill-rule="nonzero"></path>
        </g>
    </g>
</svg>